<svg width="252" height="252" viewBox="0 0 252 252" fill="none" xmlns="http://www.w3.org/2000/svg">
<path d="M125.8 251.6C195.277 251.6 251.6 195.277 251.6 125.8C251.6 56.3226 195.277 0 125.8 0C56.3226 0 0 56.3226 0 125.8C0 195.277 56.3226 251.6 125.8 251.6Z" fill="#EE800A"/>
<path d="M69.8303 66.7297C69.8303 66.7297 84.5503 48.2197 109.41 48.6397L109.61 48.1597V45.7297C110.42 43.9397 113.7 42.7997 113.7 42.7997L115.05 42.7797L116.81 42.7997C115.19 39.1497 114.26 36.7297 114.65 34.5097C116.28 25.4896 125.57 25.7597 125.57 25.7597H125.62H125.81L125.73 236.34C125.35 236.3 125.03 236.13 124.81 235.84C124.81 235.84 121.67 227.68 121.47 227.05C117.32 214.75 68.6503 73.4397 68.6503 73.4397C68.6503 73.4397 67.9003 69.0997 69.8303 66.7297Z" fill="#154C74"/>
<path d="M114.851 42.75H114.881L116.631 42.8L114.851 42.75Z" fill="#154C74"/>
<path d="M125.44 25.76C127.18 25.8 134.56 26.55 135.97 34.51C136.38 36.71 135.44 39.14 133.8 42.8L136.9 42.75L137.87 42.8C137.87 42.8 141.15 43.91 141.96 45.71L141.94 48.14L142.15 48.63C166.99 48.21 181.72 66.71 181.72 66.71C183.69 69.07 182.93 73.43 182.93 73.43C182.93 73.43 134.27 214.71 130.11 227.03C129.76 228.18 126.68 235.91 126.68 235.91C126.43 236.16 126.07 236.33 125.68 236.33C125.64 236.33 125.58 236.33 125.52 236.31L125.61 25.75" fill="white"/>
</svg>
